<?xml version="1.0" encoding="utf-8"?>
<!-- Generator: Adobe Illustrator 23.0.2, SVG Export Plug-In . SVG Version: 6.00 Build 0)  -->
<svg version="1.1" id="Layer_1" xmlns="http://www.w3.org/2000/svg" xmlns:xlink="http://www.w3.org/1999/xlink" x="0px" y="0px"
	 viewBox="0 0 276.1 132.5" style="enable-background:new 0 0 276.1 132.5;" xml:space="preserve">
<style type="text/css">
	.st0{fill:#FFFFFF;}
	.st1{fill:#748088;}
</style>
<path class="st0" d="M50.6,0.3h8v28.8h-8V0.3z"/>
<path class="st0" d="M90.1,0.2h8V11h10.3V0.2h8V29h-8v-11H98.1v11h-8V0.2z"/>
<path class="st0" d="M118.7,49L118.7,49c0-8.5,6.4-15.1,15.2-15.1c5.9,0,9.7,2.5,12.2,6l-6,4.7c-1.6-2-3.5-3.4-6.3-3.4
	c-4,0-6.9,3.5-6.9,7.7v0.1c0,4.3,2.8,7.7,6.9,7.7c3,0,4.8-1.4,6.5-3.5l6,4.3c-2.7,3.7-6.4,6.5-12.7,6.5
	C125.4,63.9,118.7,57.6,118.7,49z"/>
<path class="st0" d="M150,34.5h22.1v6.8h-14.2v4.4h10.4V52h-10.4v4.6h14.2v6.8H150V34.5z"/>
<path class="st0" d="M176.3,34.5h9.2c10.3,0,16.2,5.9,16.2,14.2v0.1c0,8.3-6.1,14.5-16.4,14.5h-9V34.5z M184.2,41.5v14.7h1.3
	c4.8,0,8-2.6,8-7.3v-0.1c0-4.6-3.2-7.3-8-7.3H184.2z"/>
<path class="st0" d="M27.5,49L27.5,49c0-8.4,6.7-15.1,15.6-15.1c8.9,0,15.5,6.6,15.5,14.9v0.1c0,8.3-6.7,15-15.6,15
	S27.5,57.3,27.5,49z M50.4,49L50.4,49c0-4.3-3-7.9-7.4-7.9s-7.3,3.5-7.3,7.7v0.1c0,4.2,3,7.8,7.4,7.8C47.5,56.7,50.4,53.2,50.4,49z"
	/>
<path class="st0" d="M27.5,83.3L27.5,83.3c0-8.4,6.7-15.1,15.6-15.1c8.9,0,15.5,6.6,15.5,14.9v0.1c0,8.3-6.7,15-15.6,15
	S27.5,91.6,27.5,83.3z M50.4,83.3L50.4,83.3c0-4.3-3-7.9-7.4-7.9s-7.3,3.5-7.3,7.7v0.1c0,4.2,3,7.8,7.4,7.8
	C47.5,91,50.4,87.5,50.4,83.3z"/>
<path class="st0" d="M62.4,68.8h19.5v7H70.4v3.4h8v8h-8v10.4h-8V68.8z"/>
<path class="st0" d="M98.1,54.6h3.5l2.7,8.7h8l-2.6-10c3.6-1.5,5.9-4.4,5.9-8.9v-0.1c0-2.8-0.9-5-2.6-6.7c-1.9-1.9-5-3.1-9.4-3.1
	H90.1v28.8h8V54.6z M98.1,41.4h5.3c2.6,0,4.3,1.2,4.3,3.5v0.1c0,2.1-1.6,3.4-4.3,3.4h-5.3V41.4z"/>
<path class="st0" d="M205.6,68.8h22.1v6.8h-14.2V80h10.4v6.3h-10.4v4.6h14.2v6.8h-22.1V68.8z"/>
<path class="st0" d="M184.2,88.9h3.5l2.7,8.7h8l-2.6-10c3.6-1.5,5.9-4.4,5.9-8.9v-0.1c0-2.8-0.9-5-2.6-6.7c-1.9-1.9-5-3.1-9.4-3.1
	h-13.6v28.8h8V88.9z M184.2,75.7h5.3c2.6,0,4.3,1.2,4.3,3.5v0.1c0,2.1-1.6,3.4-4.3,3.4h-5.3V75.7z"/>
<path class="st0" d="M30.3,0h8l9.2,29l-8.4,0.1l-1.4-5.2l-7.1,0L29.1,29h-8L30.3,0z M36.7,17.7l-2.4-8l-2.5,8L36.7,17.7z"/>
<path class="st1" d="M90,103.1h7.5l11.9,15.2v-15.2h7.9v28.8h-7l-12.4-15.8v15.8H90V103.1z"/>
<path class="st1" d="M121.3,103.1h9.2c10.3,0,16.2,5.9,16.2,14.2v0.1c0,8.3-6.1,14.5-16.4,14.5h-9V103.1z M129.3,110.2v14.7h1.3
	c4.8,0,8-2.6,8-7.3v-0.1c0-4.6-3.2-7.3-8-7.3H129.3z"/>
<path class="st1" d="M201.4,103.1h8v28.8h-8V103.1z"/>
<path class="st1" d="M213.7,117.6L213.7,117.6c0-8.4,6.7-15.1,15.6-15.1c8.9,0,15.5,6.6,15.5,14.9v0.1c0,8.3-6.7,15-15.6,15
	S213.7,125.9,213.7,117.6z M236.6,117.6L236.6,117.6c0-4.3-3-7.9-7.4-7.9s-7.3,3.5-7.3,7.7v0.1c0,4.2,3,7.8,7.4,7.8
	C233.7,125.3,236.6,121.7,236.6,117.6z"/>
<path class="st1" d="M248.9,103.1h7.5l11.9,15.2v-15.2h7.9v28.8h-7l-12.4-15.8v15.8h-7.9V103.1z"/>
<path class="st1" d="M27.5,117.6L27.5,117.6c0-8.4,6.7-15.1,15.6-15.1c8.9,0,15.5,6.6,15.5,14.9v0.1c0,8.3-6.7,15-15.6,15
	S27.5,125.9,27.5,117.6z M50.4,117.6L50.4,117.6c0-4.3-3-7.9-7.4-7.9s-7.3,3.5-7.3,7.7v0.1c0,4.2,3,7.8,7.4,7.8
	C47.5,125.3,50.4,121.8,50.4,117.6z"/>
<g>
	<path class="st0" d="M105.3,68.8h8.4l5,16.7l5.6-16.8h6.9l5.6,16.8l5-16.7h8.3l-9.6,29h-7l-5.8-16.6l-5.8,16.6h-7L105.3,68.8z"/>
</g>
<path class="st0" d="M10.9,52.4C4.8,51,0,49.3,0,43.4v-0.1C0,37.9,4.3,34,11.2,34c4.6,0,8.2,1.2,11.3,3.4l0,7.6
	c-2.6-1.9-8.9-4.3-11.5-4.3c-1.9,0-2.9,0.8-2.9,1.9v0.1c0,1.3,1,1.9,5,2.8c6.2,1.4,10.9,3.1,10.9,9.1v0.1c0,5.4-4.3,9.3-11.2,9.3
	c-4.6,0-8.2-1.2-11.3-3.4l0-7.6c2.6,1.9,8.9,4.3,11.5,4.3c1.9,0,2.9-0.8,2.9-1.9v-0.1C16,53.9,15,53.3,10.9,52.4z"/>
<path class="st0" d="M10.9,86.7C4.8,85.3,0,83.6,0,77.7v-0.1c0-5.4,4.3-9.3,11.2-9.3c4.6,0,8.2,1.2,11.3,3.4l0,7.6
	C19.8,77.4,13.6,75,11,75c-1.9,0-2.9,0.8-2.9,1.9v0.1c0,1.3,1,1.9,5,2.8c6.2,1.4,10.9,3.1,10.9,9.1v0.1c0,5.4-4.3,9.3-11.2,9.3
	c-4.6,0-8.2-1.2-11.3-3.4l0-7.6c2.6,1.9,8.9,4.3,11.5,4.3c1.9,0,2.9-0.8,2.9-1.9v-0.1C16,88.2,15,87.6,10.9,86.7z"/>
<polygon class="st0" points="78.4,10.5 78.4,0.1 70.4,0.1 70.4,10.5 62.4,10.5 62.4,10.9 62.4,18 62.4,18.5 70.4,18.5 70.4,28.9 
	78.4,28.9 78.4,18.5 86.3,18.5 86.3,18 86.3,10.9 86.3,10.5 "/>
<polygon class="st0" points="98.1,79.2 98.1,68.8 90.1,68.8 90.1,79.2 82.2,79.2 82.2,79.6 82.2,86.7 82.2,87.2 90.1,87.2 
	90.1,97.6 98.1,97.6 98.1,87.2 106,87.2 106,86.7 106,79.6 106,79.2 "/>
<polygon class="st1" points="189.7,113.5 189.7,103.1 181.7,103.1 181.7,113.5 173.8,113.5 173.8,113.9 173.8,121 173.8,121.5 
	181.7,121.5 181.7,131.9 189.7,131.9 189.7,121.5 197.6,121.5 197.6,121 197.6,113.9 197.6,113.5 "/>
<path class="st0" d="M5.3,0.2h19.5v7H13.3v3.4h8v8h-8V29h-8V0.2z"/>
<path class="st1" d="M5.3,103.1h19.5v7H13.3v3.4h8v8h-8v10.4h-8V103.1z"/>
<line class="st0" x1="39.6" y1="29" x2="47.6" y2="29"/>
<path class="st0" d="M156,68.6h8l9.2,29l-8.4,0.1l-1.4-5.2l-7.1,0l-1.5,5.1h-8L156,68.6z M162.3,86.2l-2.4-8l-2.5,8L162.3,86.2z"/>
<path class="st1" d="M156,102.9h8l9.2,29l-8.4,0.1l-1.4-5.2l-7.1,0l-1.5,5.1h-8L156,102.9z M162.3,120.5l-2.4-8l-2.5,8L162.3,120.5z
	"/>
<path class="st0" d="M78.3,34.5c0,0,0,17.5,0,17.7c0,2.2-1.8,4-4,4s-4-1.8-4-4c0-0.3,0-17.7,0-17.7h-8v16.2c0,9,4.6,13.2,11.8,13.2
	c7.3,0,12-4.1,12-13.4v-16H78.3z"/>
<path class="st1" d="M78.3,103.1c0,0,0,17.5,0,17.7c0,2.2-1.8,4-4,4s-4-1.8-4-4c0-0.3,0-17.7,0-17.7h-8v16.2c0,9,4.6,13.2,11.8,13.2
	c7.3,0,12-4.1,12-13.4v-16H78.3z"/>
</svg>
