<?xml version="1.0" encoding="utf-8"?>
<!-- Generator: Adobe Illustrator 23.0.2, SVG Export Plug-In . SVG Version: 6.00 Build 0)  -->
<svg version="1.1" id="Layer_1" xmlns="http://www.w3.org/2000/svg" xmlns:xlink="http://www.w3.org/1999/xlink" x="0px" y="0px"
	 viewBox="0 0 350 350" style="enable-background:new 0 0 350 350;" xml:space="preserve">
<style type="text/css">
	.st0{fill:#2C393F;}
	.st1{fill:#FFFFFF;}
	.st2{fill:#748088;}
</style>
<g>
	<rect x="0.3" y="0.1" class="st0" width="350" height="350"/>
	<polygon class="st1" points="193.4,156.9 193.4,109.6 157.1,109.6 157.1,156.9 121,156.9 121,158.6 121,190.8 121,193.3 
		157.1,193.3 157.1,240.6 193.4,240.6 193.4,193.3 229.6,193.3 229.6,190.8 229.6,158.6 229.6,156.9 	"/>
	<polygon class="st2" points="121,142.8 95.3,117.1 37.4,175.1 95.3,233.1 121,207.4 88.7,175.1 	"/>
	<polygon class="st2" points="229.6,142.8 255.2,117.1 313.2,175.1 255.2,233.1 229.6,207.4 261.8,175.1 	"/>
</g>
</svg>
